<?xml version="1.0"?>
<svg width="1028" height="222" xmlns="http://www.w3.org/2000/svg" xmlns:svg="http://www.w3.org/2000/svg" enable-background="new 0 0 1000 222" version="1.1" xml:space="preserve">
 <style type="text/css">.st0{fill:#FFFFFF;}
	.st1{fill-rule:evenodd;clip-rule:evenodd;fill:#FFFFFF;}
	.st2{font-family:&#x27;TimesNewRomanPSMT&#x27;;}
	.st3{font-size:50px;}
	.st4{font-family:&#x27;TimesNewRomanPS-BoldMT&#x27;;}</style>
 <g class="layer">
  <title>Layer 1</title>
  <g id="svg_1" transform="translate(-66 1)">
   <path class="st0" d="m160.9,145.96l-13.93,0.01l-0.07,-49.21c-0.01,-4.84 -0.78,-8.35 -1.72,-10.64c-0.97,-2.5 -2.52,-4.58 -5.09,-6.24c5.34,1.04 8.74,3.23 10.63,5.99c1.92,2.79 3.2,7.85 3.2,15.13l0,28.42c0,4.84 0.66,8.32 2.01,10.39c0.88,1.44 2.58,2.53 4.98,3.3c0.01,-10.92 0.01,-23.45 -0.06,-35.2c-0.09,-16.42 0.96,-31.46 -3.95,-36.88c-2.62,-2.89 -6.47,-3.59 -7.64,-3.84l0,3.3c-4.27,-3.79 -0.62,-10.06 4.86,-9.51c6.65,-5.74 17.86,-2.47 22.65,4.04c3.76,3.92 4.91,12.53 4.9,22.37l-0.02,55.79c2.4,-0.76 4.1,-1.86 4.98,-3.3c1.35,-2.07 2.01,-5.56 2.01,-10.39l0,-28.42c0,-7.29 0.94,-12.37 2.86,-15.17c1.81,-2.66 5.34,-4.53 10.34,-5.59l0,0.29c-2.25,1.58 -3.86,3.42 -4.81,5.55c-0.94,2.29 -1.37,5.84 -1.38,10.68l-0.08,49.12l-13.92,0l-0.01,20.88l-6.99,0c0.04,-13.37 0.01,-84.45 0,-84.44c-0.5,-10.59 -2.4,-16.69 -9.86,-18.7c-2.79,-0.75 -5.98,-0.49 -8.58,0.82c9.41,2.48 11.61,10.77 11.6,27.4l-0.07,74.93l-6.87,0c-0.01,-5.01 0.01,-12.5 0.03,-20.88" id="svg_2"/>
   <path class="st0" d="m216.15,118.19c6.72,0 12.1,-2.06 16.12,-6.15c4.15,-4.09 6.22,-11.76 6.22,-17.49c0,-5.01 -1.67,-9.46 -5.08,-13.42c-3.31,-3.96 -7.47,-5.69 -12.45,-5.96c-0.35,-0.02 -0.63,-0.06 -0.94,-0.06c-11.57,0.1 -17.34,6.61 -17.37,19.57l-0.1,51.22c2.17,0.02 18.58,0.13 18.64,-0.04c0,0 -0.25,-1.83 -0.3,-1.84c-8.97,-1.1 -10.87,-5.71 -11.05,-12.57l-0.08,-14.15l0,0.04c2.11,0.55 4.26,0.85 6.39,0.85m-6.53,-22.07c0,-4.61 0.9,-8.24 2.73,-10.86c3.88,-5.22 10.92,-4.67 14.93,-0.2c2.32,2.55 3.47,5.66 3.47,9.29c0,4.03 -1.39,10.36 -4.16,13.5c-2.77,3.04 -6.63,4.58 -11.58,4.58c-1.44,0 -3.26,-0.15 -5.31,-0.41l-0.08,-15.9z" id="svg_3"/>
   <path class="st0" d="m132.02,103.79l-0.07,-11.45c-1,-8.33 -6.55,-11.57 -16.42,-10.33c-6.81,0.85 -13.21,7.83 -12.79,6.4c1.43,-4.83 1.95,-6.97 3.68,-9.03c2.98,-3.56 8.97,-4.03 11.55,-4.15c12.41,-0.61 21.26,5.48 22.03,18.91l-0.05,51.75l-7.81,0l0.02,-2.58c-2.69,1.77 -6.16,2.67 -10.41,2.71c-0.31,0 -0.59,-0.04 -0.94,-0.06c-4.98,-0.26 -9.14,-1.99 -12.45,-5.95c-3.41,-3.96 -5.08,-8.41 -5.08,-13.42c0,-5.73 2.07,-13.4 6.22,-17.49c4.02,-4.09 9.39,-6.15 16.12,-6.15c2.12,-0.01 4.27,0.29 6.4,0.84m0.03,5.33c-2.06,-0.26 -3.86,-0.41 -5.31,-0.41c-4.96,0 -8.82,1.54 -11.58,4.58c-4.96,5.64 -5.9,17.05 -0.69,22.79c4.02,4.47 11.05,5.02 14.93,-0.2c1.79,-2.55 2.69,-6.07 2.73,-10.52l0,-0.85l-0.08,-15.39z" id="svg_4"/>
   <path class="st1" d="m173.18,57.48c0.09,-0.34 0.19,-0.75 0.32,-1.25c0.7,-2.88 0.22,-8.82 -2.36,-11.48c1.05,2.95 0.94,6.6 0.1,10.03c-0.24,0.98 -0.55,1.91 -0.93,2.79c0.86,0.34 1.7,0.76 2.45,1.19c0.83,0.48 1.59,1.02 2.28,1.59c0.02,-0.09 0.03,-0.18 0.04,-0.22c0.14,-0.68 0.33,-1.36 0.56,-2.03c1.13,-3.34 3.13,-6.06 5.56,-7.91c-3.4,0.68 -6.52,3.37 -8.02,7.29" id="svg_5"/>
   <path class="st1" d="m164.25,53.66c-0.08,0.32 -0.14,0.58 -0.19,0.81c-0.91,-3.1 -2.89,-5.63 -5.38,-6.99c1.78,2.38 2.98,5.39 3.28,8.7c0.82,-0.06 1.65,-0.06 2.49,0.01c0.66,0.05 1.32,0.14 1.98,0.27c0.07,-0.96 0.23,-1.93 0.47,-2.9c0.84,-3.43 1.99,-6.75 4.25,-8.8c-3.48,1 -6.27,6.32 -6.9,8.9" id="svg_6"/>
   <path class="st0" d="m91.41,79.86c-0.17,0.31 -0.3,0.61 -0.38,0.88c-0.09,0.29 -0.16,0.61 -0.21,0.98c-1.54,0.01 -3.12,0.09 -4.72,0.24l-0.84,0.08c-0.19,0.5 -0.44,1.26 -0.76,2.28c-0.33,1.03 -0.56,1.8 -0.7,2.32c1.14,1.01 2.59,2.17 4.36,3.49c-0.13,0.19 -0.23,0.38 -0.29,0.58c-0.04,0.14 -0.08,0.35 -0.12,0.64c-4.1,-3.72 -7.8,-7 -11.09,-9.85l0.11,-0.35c4.87,-0.37 9.76,-0.8 14.64,-1.29m-7.1,2.29l-0.92,0.06c-0.47,0.03 -1.9,0.16 -4.3,0.39l3.98,3.46c0.02,-0.07 0.08,-0.27 0.18,-0.58c0.11,-0.31 0.2,-0.58 0.28,-0.83c0.06,-0.19 0.17,-0.56 0.33,-1.12c0.19,-0.57 0.34,-1.02 0.45,-1.38" id="svg_7"/>
   <path class="st0" d="m91.79,63.37c2.04,1.06 3.3,2.45 3.78,4.17c0.48,1.72 0.14,3.69 -1.02,5.92c-0.14,0.27 -0.37,0.68 -0.68,1.23c-0.32,0.55 -0.55,0.98 -0.7,1.26c0.01,-0.02 -0.22,0.44 -0.68,1.4c-1.21,-0.69 -3.17,-1.73 -5.87,-3.14c-2.77,-1.44 -4.76,-2.44 -5.96,-3.01c0.29,-0.5 0.52,-0.92 0.71,-1.28c0.12,-0.23 0.36,-0.73 0.72,-1.49c0.36,-0.76 0.67,-1.4 0.94,-1.92c0.91,-1.75 1.86,-2.9 2.84,-3.43c1.75,-0.94 3.72,-0.85 5.92,0.29m-0.55,1.85c-1.86,-0.97 -3.4,-1.27 -4.62,-0.93c-1.22,0.35 -2.28,1.38 -3.17,3.1c-0.49,0.93 -0.91,1.82 -1.27,2.66c1.59,0.87 3.16,1.71 4.72,2.52c2.11,1.1 3.99,2.05 5.64,2.85c0.44,-0.7 0.78,-1.29 1.03,-1.77c1.97,-3.79 1.19,-6.6 -2.33,-8.43" id="svg_8"/>
   <path class="st0" d="m99.42,43.05c1.39,2.18 3.93,6.11 7.63,11.8c-0.17,0.13 -0.33,0.29 -0.49,0.48c-0.17,0.21 -0.29,0.42 -0.36,0.61c-3.19,-1.32 -6.78,-2.66 -10.77,-4.02l6.24,9.66c-0.21,0.16 -0.38,0.32 -0.5,0.47c-0.12,0.15 -0.24,0.35 -0.35,0.59c-3.22,-1.29 -7.55,-2.98 -13.01,-5.06c0.21,-0.18 0.43,-0.41 0.65,-0.68c0.22,-0.27 0.39,-0.53 0.52,-0.78c3.74,1.63 7.43,3.14 11.07,4.53c-2.05,-3.37 -4.27,-6.71 -6.67,-10.03c0.16,-0.12 0.31,-0.27 0.45,-0.44c0.15,-0.18 0.26,-0.37 0.34,-0.55c3.64,1.45 7.36,2.82 11.15,4.12c-2.08,-3.31 -4.31,-6.54 -6.69,-9.69c0.16,-0.12 0.31,-0.27 0.45,-0.44c0.14,-0.2 0.26,-0.39 0.34,-0.57" id="svg_9"/>
   <path class="st0" d="m117.13,36.87c1.32,1.59 1.89,3.29 1.69,5.11c-0.2,1.82 -1.13,3.41 -2.79,4.8c-1.71,1.42 -3.45,2.07 -5.23,1.95c-1.78,-0.13 -3.35,-1.01 -4.72,-2.65c-1.35,-1.62 -1.92,-3.33 -1.72,-5.13c0.2,-1.8 1.14,-3.4 2.82,-4.8c1.7,-1.41 3.44,-2.06 5.23,-1.92c1.79,0.13 3.36,1.01 4.72,2.64m-1.49,1.23c-1.29,-1.55 -2.61,-2.44 -3.98,-2.67c-1.36,-0.23 -2.7,0.19 -4.01,1.28c-1.29,1.08 -1.94,2.32 -1.94,3.74c-0.01,1.42 0.63,2.89 1.91,4.43c1.26,1.51 2.57,2.38 3.93,2.6c1.37,0.23 2.7,-0.2 4,-1.28c1.29,-1.08 1.94,-2.31 1.96,-3.71c0.03,-1.4 -0.6,-2.87 -1.87,-4.39" id="svg_10"/>
   <path class="st0" d="m131.93,35.8c-0.4,0.16 -0.75,0.33 -1.04,0.5c-0.29,0.17 -0.59,0.39 -0.89,0.64c-1.5,-0.64 -2.66,-1.12 -3.5,-1.44l-3.34,-1.24c-0.76,-0.28 -1.31,-0.32 -1.66,-0.13l1.18,2c0.9,1.52 1.69,2.77 2.35,3.75c-0.33,0.12 -0.61,0.25 -0.84,0.38c-0.22,0.13 -0.46,0.31 -0.71,0.53c-0.63,-1.24 -1.57,-2.92 -2.82,-5.04c-1.73,-2.92 -3.05,-5.06 -3.95,-6.41c0.36,-0.15 0.62,-0.28 0.78,-0.37c0.23,-0.14 0.49,-0.32 0.76,-0.56c0.36,0.76 0.86,1.68 1.51,2.78l1.52,2.57c0.04,0.02 0.08,0.02 0.11,0c0.54,-0.32 1.24,-3.13 2.1,-8.45c0.25,-0.09 0.51,-0.21 0.78,-0.37c0.28,-0.17 0.52,-0.34 0.72,-0.51c-0.18,0.46 -0.6,1.9 -1.24,4.34l-1.03,3.89c1.26,0.49 4.33,1.54 9.21,3.14" id="svg_11"/>
   <path class="st0" d="m145.2,30.53c-0.35,0.06 -0.66,0.15 -0.93,0.25c-0.28,0.11 -0.58,0.25 -0.89,0.45c-0.97,-1.2 -2.01,-2.39 -3.12,-3.55l-0.59,-0.61c-0.51,0.17 -1.26,0.44 -2.26,0.82c-1.01,0.38 -1.76,0.68 -2.25,0.9c-0.08,1.52 -0.08,3.38 -0.03,5.58c-0.23,0.02 -0.44,0.06 -0.64,0.14c-0.13,0.05 -0.33,0.15 -0.57,0.3c0.36,-5.52 0.63,-10.46 0.81,-14.82l0.35,-0.13c3.33,3.6 6.7,7.16 10.12,10.67m-6.2,-4.13l-0.62,-0.68c-0.32,-0.35 -1.31,-1.39 -2.98,-3.12l-0.23,5.26c0.07,-0.03 0.26,-0.1 0.57,-0.22c0.31,-0.1 0.58,-0.2 0.83,-0.29c0.18,-0.07 0.55,-0.21 1.09,-0.44c0.53,-0.21 0.99,-0.38 1.34,-0.51" id="svg_12"/>
   <path class="st0" d="m152.65,16.36c-0.88,0.04 -2.02,0.22 -3.42,0.55l-0.55,0.13c0.18,1.07 0.47,2.49 0.88,4.28c0.53,2.31 1.16,4.91 1.9,7.81c-0.18,0.01 -0.47,0.07 -0.86,0.16c-0.39,0.09 -0.69,0.17 -0.9,0.25c-0.74,-3.5 -1.39,-6.48 -1.95,-8.94l-0.73,-3.17l-0.51,0.12c-1.51,0.35 -2.66,0.69 -3.45,1.03c-0.03,-0.24 -0.05,-0.42 -0.08,-0.54c-0.03,-0.14 -0.09,-0.33 -0.17,-0.58c1.45,-0.3 2.97,-0.62 4.56,-0.99c1.61,-0.37 3.29,-0.78 5.04,-1.22c0,0.17 0.02,0.36 0.07,0.57c0.02,0.17 0.09,0.36 0.17,0.54" id="svg_13"/>
   <path class="st0" d="m167.95,13.72c0.06,1.68 0.11,2.86 0.16,3.55l0.04,0.51c0.15,2.11 0.23,3.58 0.22,4.4c-0.03,1.24 -0.19,2.19 -0.5,2.83c-0.78,1.61 -2.31,2.49 -4.58,2.66c-1.93,0.14 -3.37,-0.23 -4.32,-1.1c-0.95,-0.88 -1.5,-2.33 -1.65,-4.35c0,-0.08 -0.03,-0.57 -0.07,-1.46c-0.05,-0.9 -0.1,-1.75 -0.16,-2.55c-0.08,-1.05 -0.19,-2.28 -0.33,-3.67c0.26,0.03 0.55,0.04 0.85,0.02c0.34,-0.02 0.64,-0.08 0.9,-0.16l0.44,7.09c0.07,0.99 0.17,1.73 0.3,2.23c0.19,0.82 0.52,1.47 0.99,1.96c0.79,0.83 1.89,1.19 3.29,1.09c1.42,-0.1 2.46,-0.64 3.12,-1.6c0.38,-0.55 0.6,-1.28 0.66,-2.2c0.05,-0.62 0.02,-1.64 -0.09,-3.07c-0.16,-2.19 -0.33,-4.22 -0.52,-6.08c0.2,0.04 0.4,0.05 0.61,0.03c0.24,-0.02 0.45,-0.06 0.64,-0.13" id="svg_14"/>
   <path class="st0" d="m182.03,27.95c-0.42,-0.1 -0.81,-0.16 -1.16,-0.19c-0.34,-0.03 -0.72,-0.03 -1.14,0c-0.9,-1.58 -1.62,-2.77 -2.15,-3.58l-1.89,-2.9c-0.19,-0.3 -0.44,-0.47 -0.74,-0.49c-0.06,-0.01 -0.19,0 -0.37,0.01l-0.29,3.56c-0.06,0.75 -0.11,1.73 -0.14,2.94c-0.32,-0.09 -0.61,-0.15 -0.89,-0.17c-0.26,-0.02 -0.57,-0.01 -0.92,0.02c0.21,-1.5 0.44,-3.7 0.68,-6.62c0.23,-2.81 0.37,-5.03 0.41,-6.66c0.49,0.07 0.79,0.1 0.89,0.11c0.25,0.02 0.71,0.04 1.4,0.08c0.69,0.03 1.26,0.06 1.71,0.1c2.91,0.24 4.28,1.41 4.11,3.51c-0.07,0.91 -0.47,1.65 -1.19,2.22c-0.72,0.57 -1.71,0.93 -2.99,1.06c0.82,1.3 2.38,3.63 4.67,7m-2.18,-10.2c0.14,-1.75 -0.9,-2.72 -3.13,-2.9c-0.39,-0.03 -0.89,-0.05 -1.52,-0.07c-0.12,0.56 -0.22,1.22 -0.28,1.97l-0.28,3.42c0.15,0.03 0.37,0.05 0.64,0.07c2.89,0.25 4.41,-0.58 4.57,-2.49" id="svg_15"/>
   <path class="st0" d="m196.26,31.38c-0.32,-0.15 -0.62,-0.26 -0.9,-0.33c-0.29,-0.08 -0.62,-0.13 -0.99,-0.16c-0.1,-1.54 -0.26,-3.11 -0.49,-4.7l-0.12,-0.84c-0.51,-0.16 -1.28,-0.37 -2.31,-0.64c-1.04,-0.27 -1.83,-0.46 -2.35,-0.57c-0.94,1.19 -2.03,2.71 -3.25,4.54c-0.2,-0.12 -0.4,-0.2 -0.6,-0.25c-0.14,-0.04 -0.35,-0.06 -0.64,-0.09c3.49,-4.29 6.57,-8.16 9.24,-11.61l0.36,0.09c0.61,4.86 1.29,9.71 2.05,14.56m-2.67,-6.96l-0.1,-0.91c-0.05,-0.47 -0.26,-1.89 -0.62,-4.27l-3.23,4.16c0.07,0.02 0.27,0.07 0.58,0.15c0.31,0.09 0.59,0.18 0.85,0.24c0.19,0.05 0.57,0.14 1.14,0.28c0.55,0.13 1.02,0.25 1.38,0.35" id="svg_16"/>
   <path class="st0" d="m219.32,31.45c-0.61,1.09 -1.48,1.71 -2.62,1.86c-1.14,0.14 -2.47,-0.21 -4.01,-1.07c-0.5,-0.28 -0.93,-0.53 -1.28,-0.76l-1.36,2.44c-0.5,0.9 -1.01,1.87 -1.52,2.93c-0.29,-0.22 -0.52,-0.38 -0.68,-0.47c-0.25,-0.14 -0.55,-0.27 -0.9,-0.39c1.11,-1.84 2.23,-3.75 3.35,-5.75c1.16,-2.08 2.21,-4.04 3.15,-5.88c0.31,0.22 0.58,0.39 0.81,0.52c0.27,0.15 0.74,0.38 1.39,0.7c0.65,0.31 1.16,0.57 1.52,0.77c1.23,0.69 2.02,1.47 2.39,2.36c0.36,0.88 0.28,1.79 -0.24,2.74m-1.69,-0.75c0.5,-0.9 0.6,-1.68 0.28,-2.35c-0.31,-0.67 -1.04,-1.32 -2.19,-1.96c-0.33,-0.18 -0.69,-0.36 -1.08,-0.54c-0.74,1.2 -1.43,2.36 -2.05,3.47l-0.86,1.54c0.33,0.21 0.58,0.37 0.75,0.46c2.44,1.36 4.16,1.15 5.15,-0.62" id="svg_17"/>
   <path class="st0" d="m231.28,44.7c-1.29,1.62 -2.84,2.51 -4.66,2.69c-1.82,0.17 -3.57,-0.41 -5.26,-1.76c-1.74,-1.39 -2.73,-2.96 -2.97,-4.73c-0.24,-1.77 0.31,-3.49 1.64,-5.16c1.31,-1.65 2.87,-2.55 4.68,-2.72c1.8,-0.17 3.56,0.43 5.27,1.79c1.73,1.38 2.71,2.96 2.94,4.74c0.23,1.77 -0.32,3.49 -1.64,5.15m-1.51,-1.22c1.25,-1.57 1.86,-3.05 1.81,-4.43c-0.05,-1.38 -0.74,-2.6 -2.07,-3.67c-1.31,-1.05 -2.66,-1.43 -4.05,-1.15c-1.39,0.28 -2.71,1.2 -3.95,2.77c-1.22,1.53 -1.81,2.99 -1.76,4.38c0.05,1.38 0.74,2.6 2.06,3.66c1.31,1.05 2.65,1.44 4.03,1.17c1.39,-0.26 2.7,-1.17 3.93,-2.73" id="svg_18"/>
   <path class="st0" d="m233.87,57.36l-3.02,-3.38c-0.61,-0.67 -1.2,-1.28 -1.76,-1.83c2.02,-1.72 3.68,-3.19 5,-4.39c1.47,-1.34 3.08,-2.88 4.83,-4.61c0.15,0.24 0.33,0.48 0.56,0.73c0.23,0.25 0.45,0.45 0.66,0.61c-2.46,2.07 -4.2,3.58 -5.24,4.53c-1.02,0.93 -2.33,2.2 -3.95,3.81c0.17,0.2 0.46,0.53 0.88,0.99c1.17,1.28 2.14,2.18 2.92,2.72c-0.05,0.05 -0.12,0.11 -0.22,0.2c-0.11,0.08 -0.19,0.14 -0.24,0.2c-0.05,0.04 -0.12,0.11 -0.2,0.21c-0.09,0.08 -0.16,0.15 -0.22,0.21" id="svg_19"/>
   <path class="st0" d="m243.44,63.78c-1.03,0.72 -2.1,0.96 -3.22,0.72c-1.12,-0.25 -2.08,-0.95 -2.89,-2.09c-0.75,-1.06 -1.09,-2.16 -1.04,-3.28c0.7,-0.2 1.34,-0.48 1.94,-0.84c-0.92,1.39 -0.93,2.71 -0.05,3.97c0.48,0.68 1.08,1.08 1.79,1.21c0.72,0.12 1.44,-0.07 2.16,-0.58c0.51,-0.36 0.83,-0.78 0.95,-1.26c0.11,-0.43 0.09,-1.02 -0.07,-1.76l-0.37,-1.67c-0.4,-1.83 0,-3.17 1.19,-4.01c0.9,-0.63 1.86,-0.84 2.87,-0.63c1.01,0.22 1.87,0.83 2.57,1.83c0.59,0.84 0.96,1.79 1.12,2.84c-0.44,0.07 -0.96,0.21 -1.54,0.42c0.41,-1.13 0.3,-2.15 -0.34,-3.05c-0.41,-0.58 -0.92,-0.92 -1.52,-1.02c-0.6,-0.1 -1.2,0.07 -1.81,0.49c-0.83,0.58 -1.1,1.58 -0.81,2.98l0.35,1.68c0.2,0.97 0.21,1.77 0.02,2.4c-0.18,0.62 -0.62,1.17 -1.3,1.65" id="svg_20"/>
   <path class="st0" d="m246.55,77.82c-0.14,-0.41 -0.29,-0.77 -0.44,-1.07c-0.15,-0.3 -0.35,-0.61 -0.59,-0.93c0.73,-1.46 1.27,-2.6 1.64,-3.42l1.43,-3.26c0.32,-0.74 0.4,-1.29 0.22,-1.65l-2.06,1.06c-1.57,0.81 -2.87,1.52 -3.88,2.14c-0.1,-0.34 -0.22,-0.63 -0.33,-0.86c-0.12,-0.23 -0.28,-0.48 -0.49,-0.74c1.28,-0.56 3.01,-1.4 5.19,-2.53c3.02,-1.56 5.22,-2.75 6.63,-3.58c0.13,0.37 0.24,0.64 0.32,0.8c0.13,0.24 0.3,0.51 0.51,0.79c-0.77,0.31 -1.73,0.76 -2.86,1.34l-2.65,1.37c-0.02,0.04 -0.02,0.08 -0.01,0.11c0.29,0.56 3.06,1.41 8.31,2.58c0.07,0.25 0.18,0.52 0.32,0.8c0.15,0.29 0.31,0.54 0.47,0.74c-0.45,-0.21 -1.87,-0.71 -4.26,-1.49l-3.83,-1.25c-0.54,1.27 -1.76,4.27 -3.64,9.05" id="svg_21"/>
   <path class="st0" d="m250.99,91.18c-0.04,-0.35 -0.11,-0.67 -0.2,-0.94c-0.09,-0.29 -0.22,-0.59 -0.39,-0.92c1.25,-0.9 2.49,-1.88 3.72,-2.92l0.64,-0.55c-0.14,-0.52 -0.37,-1.28 -0.69,-2.3c-0.33,-1.03 -0.58,-1.79 -0.77,-2.29c-1.51,-0.16 -3.37,-0.27 -5.57,-0.34c0,-0.23 -0.04,-0.44 -0.1,-0.64c-0.04,-0.13 -0.13,-0.33 -0.27,-0.59c5.49,0.67 10.41,1.21 14.75,1.64l0.11,0.35c-3.78,3.11 -7.53,6.28 -11.23,9.5m4.48,-5.97l0.72,-0.58c0.37,-0.3 1.46,-1.23 3.29,-2.8l-5.24,-0.52c0.02,0.07 0.08,0.27 0.18,0.58c0.09,0.31 0.17,0.59 0.25,0.84c0.06,0.19 0.18,0.56 0.37,1.11c0.16,0.55 0.31,1.01 0.43,1.37" id="svg_22"/>
   <path class="st0" d="m83.94,129.77c-1.23,0.2 -2.26,-0.11 -3.08,-0.91c-0.82,-0.8 -1.37,-2.07 -1.65,-3.8c-0.09,-0.57 -0.16,-1.06 -0.2,-1.47l-2.75,0.44c-1.01,0.16 -2.09,0.37 -3.24,0.62c-0.01,-0.37 -0.02,-0.64 -0.05,-0.82c-0.05,-0.28 -0.13,-0.6 -0.25,-0.95c2.13,-0.26 4.33,-0.58 6.59,-0.94c2.35,-0.38 4.54,-0.77 6.57,-1.17c0.02,0.38 0.05,0.7 0.09,0.95c0.05,0.31 0.15,0.82 0.32,1.52c0.16,0.7 0.27,1.26 0.34,1.67c0.22,1.39 0.1,2.5 -0.37,3.34c-0.49,0.84 -1.26,1.35 -2.32,1.52m-0.46,-1.79c1.02,-0.16 1.69,-0.57 2.02,-1.23c0.33,-0.66 0.39,-1.64 0.18,-2.93c-0.06,-0.37 -0.14,-0.77 -0.25,-1.19c-1.4,0.16 -2.73,0.34 -4,0.54l-1.74,0.28c0.04,0.39 0.07,0.68 0.1,0.87c0.46,2.77 1.69,3.99 3.69,3.66" id="svg_23"/>
   <path class="st0" d="m77.93,144.8c-0.06,-0.43 -0.14,-0.81 -0.25,-1.15c-0.1,-0.32 -0.24,-0.68 -0.42,-1.05c1.13,-1.42 1.98,-2.53 2.54,-3.32l2,-2.83c0.21,-0.29 0.27,-0.58 0.18,-0.87c-0.02,-0.06 -0.07,-0.17 -0.15,-0.34l-3.41,1.04c-0.72,0.22 -1.65,0.54 -2.79,0.95c-0.03,-0.33 -0.09,-0.63 -0.17,-0.89c-0.08,-0.25 -0.2,-0.53 -0.36,-0.85c1.47,-0.35 3.61,-0.96 6.4,-1.81c2.7,-0.82 4.81,-1.52 6.34,-2.08c0.12,0.48 0.19,0.77 0.22,0.87c0.07,0.24 0.22,0.68 0.44,1.33c0.23,0.65 0.41,1.19 0.54,1.63c0.85,2.79 0.27,4.5 -1.75,5.11c-0.87,0.27 -1.71,0.17 -2.5,-0.28c-0.8,-0.45 -1.49,-1.25 -2.08,-2.39c-0.89,1.24 -2.49,3.55 -4.78,6.93m8.68,-5.8c1.68,-0.51 2.19,-1.84 1.54,-3.98c-0.11,-0.37 -0.28,-0.85 -0.5,-1.44c-0.57,0.09 -1.22,0.25 -1.94,0.47l-3.28,1c0.03,0.15 0.09,0.36 0.17,0.62c0.84,2.78 2.18,3.89 4.01,3.33" id="svg_24"/>
   <path class="st0" d="m83.98,158.01c-0.09,-0.34 -0.2,-0.65 -0.32,-0.9c-0.13,-0.27 -0.3,-0.56 -0.51,-0.86c1.12,-1.07 2.22,-2.2 3.29,-3.4l0.56,-0.64c-0.21,-0.49 -0.54,-1.22 -1,-2.18c-0.46,-0.97 -0.82,-1.7 -1.07,-2.17c-1.52,0.05 -3.38,0.19 -5.57,0.42c-0.04,-0.23 -0.1,-0.44 -0.19,-0.62c-0.06,-0.13 -0.18,-0.31 -0.35,-0.55c5.53,-0.08 10.48,-0.21 14.83,-0.38l0.16,0.33c-3.33,3.61 -6.6,7.26 -9.83,10.95m3.62,-6.51l0.63,-0.67c0.32,-0.34 1.28,-1.42 2.87,-3.23l-5.27,0.19c0.03,0.07 0.12,0.25 0.26,0.55c0.13,0.3 0.25,0.57 0.36,0.8c0.08,0.18 0.26,0.52 0.52,1.05c0.26,0.53 0.47,0.97 0.63,1.31" id="svg_25"/>
   <path class="st0" d="m105.9,166.73c-2.48,0.72 -6.97,2.05 -13.47,4c-0.08,-0.2 -0.19,-0.4 -0.33,-0.6c-0.16,-0.22 -0.32,-0.4 -0.48,-0.52c2.16,-2.69 4.46,-5.76 6.89,-9.21l-11.03,3.27c-0.1,-0.25 -0.2,-0.46 -0.31,-0.61c-0.11,-0.16 -0.27,-0.33 -0.47,-0.5c2.14,-2.72 4.98,-6.41 8.52,-11.06c0.11,0.25 0.27,0.52 0.47,0.81c0.2,0.29 0.4,0.53 0.6,0.72c-2.62,3.13 -5.1,6.25 -7.46,9.34c3.81,-1.02 7.64,-2.21 11.5,-3.58c0.07,0.19 0.17,0.37 0.29,0.56c0.13,0.19 0.28,0.35 0.43,0.48c-2.41,3.09 -4.77,6.27 -7.09,9.54c3.76,-1.06 7.49,-2.29 11.18,-3.69c0.07,0.19 0.17,0.37 0.29,0.56c0.17,0.19 0.32,0.36 0.47,0.49" id="svg_26"/>
   <path class="st0" d="m112.32,181.78c-1.42,1.5 -3.04,2.26 -4.87,2.28c-1.83,0.02 -3.52,-0.71 -5.09,-2.2c-1.62,-1.53 -2.47,-3.18 -2.56,-4.96c-0.09,-1.78 0.6,-3.45 2.07,-5c1.45,-1.53 3.08,-2.3 4.89,-2.32c1.81,-0.01 3.51,0.73 5.1,2.23c1.61,1.52 2.45,3.17 2.53,4.97c0.07,1.8 -0.62,3.46 -2.07,5m-1.4,-1.33c1.38,-1.46 2.11,-2.88 2.18,-4.27c0.07,-1.38 -0.51,-2.66 -1.75,-3.83c-1.22,-1.15 -2.53,-1.65 -3.94,-1.48c-1.41,0.16 -2.8,0.97 -4.17,2.42c-1.35,1.42 -2.05,2.83 -2.12,4.22c-0.06,1.39 0.52,2.66 1.75,3.82c1.22,1.15 2.53,1.65 3.92,1.51c1.39,-0.15 2.77,-0.95 4.13,-2.39" id="svg_27"/>
   <path class="st0" d="m132.86,194.28c-0.98,1.82 -2.35,2.98 -4.1,3.48c-1.76,0.5 -3.59,0.23 -5.49,-0.79c-1.96,-1.05 -3.21,-2.43 -3.76,-4.13c-0.55,-1.7 -0.32,-3.49 0.69,-5.36c1,-1.86 2.37,-3.03 4.11,-3.51c1.75,-0.49 3.58,-0.21 5.51,0.82c1.95,1.05 3.19,2.42 3.74,4.13c0.53,1.71 0.3,3.5 -0.7,5.36m-1.69,-0.92c0.95,-1.77 1.28,-3.34 0.99,-4.69c-0.29,-1.35 -1.19,-2.43 -2.69,-3.24c-1.48,-0.79 -2.88,-0.93 -4.19,-0.4c-1.32,0.52 -2.45,1.67 -3.39,3.43c-0.93,1.73 -1.24,3.27 -0.94,4.62c0.3,1.36 1.19,2.43 2.68,3.23c1.48,0.79 2.87,0.94 4.18,0.43c1.29,-0.5 2.41,-1.63 3.36,-3.38" id="svg_28"/>
   <path class="st0" d="m135.91,200.38c-0.53,1.37 -1.21,2.28 -2.03,2.73c-0.82,0.45 -1.92,0.48 -3.31,0.1l0.09,-0.57c1.03,0.25 1.84,0.1 2.41,-0.43c0.48,-0.44 1.01,-1.42 1.59,-2.94c1.96,-5.07 3.21,-8.47 3.75,-10.2c0.24,0.14 0.48,0.25 0.71,0.34c0.34,0.13 0.65,0.22 0.92,0.27c-0.49,1.13 -1.11,2.66 -1.86,4.59c-0.52,1.35 -1.03,2.7 -1.52,4.06c-0.5,1.35 -0.75,2.03 -0.75,2.05" id="svg_29"/>
   <path class="st0" d="m153.23,194.29c-0.37,0.59 -0.63,1.16 -0.78,1.73c-0.51,-1.56 -1.61,-2.57 -3.28,-3.01c-1.57,-0.42 -2.94,-0.22 -4.09,0.59c-1.16,0.81 -1.99,2.18 -2.5,4.08c-0.49,1.86 -0.44,3.43 0.15,4.71c0.59,1.28 1.64,2.12 3.14,2.52c1.45,0.38 2.96,0.22 4.53,-0.49l-0.44,1.22c-1.14,0.45 -2.64,0.43 -4.5,-0.07c-2.09,-0.55 -3.55,-1.56 -4.39,-3.03c-0.84,-1.47 -0.98,-3.26 -0.41,-5.39c0.54,-2.02 1.6,-3.48 3.19,-4.36c1.59,-0.88 3.45,-1.04 5.58,-0.47c1.48,0.38 2.75,1.04 3.8,1.97" id="svg_30"/>
   <path class="st0" d="m165.81,195.05c-3.65,3.88 -6.94,7.66 -9.86,11.33c1.03,0.14 1.8,0.24 2.32,0.29c1.85,0.2 3.81,0.34 5.88,0.4c-0.03,0.13 -0.05,0.32 -0.08,0.59c-0.03,0.28 -0.05,0.48 -0.05,0.61c-2.79,-0.35 -4.85,-0.6 -6.18,-0.75c-1.59,-0.17 -3.16,-0.32 -4.7,-0.45c3.49,-3.94 6.71,-7.74 9.67,-11.41c-0.34,-0.05 -0.85,-0.11 -1.55,-0.19c-1.75,-0.19 -3.69,-0.33 -5.84,-0.42c0.05,-0.26 0.09,-0.44 0.1,-0.56c0.01,-0.14 0.02,-0.33 0.02,-0.57c2.27,0.3 3.98,0.51 5.13,0.64c1.15,0.13 2.86,0.29 5.14,0.49" id="svg_31"/>
   <path class="st0" d="m178.12,194.66c-1.53,2.72 -2.91,5.29 -4.13,7.72c0.01,0.91 0.02,1.6 0.04,2.07c0.05,1.23 0.14,2.47 0.26,3.7c-0.33,-0.05 -0.63,-0.07 -0.89,-0.06c-0.28,0.01 -0.58,0.06 -0.9,0.13c0.02,-1.07 0.02,-2 -0.01,-2.79c-0.03,-0.81 -0.1,-1.69 -0.2,-2.67c-1.9,-3 -3.54,-5.55 -4.93,-7.67c0.31,0.04 0.67,0.05 1.08,0.04c0.4,-0.02 0.76,-0.06 1.07,-0.12c1.12,2.29 2.42,4.44 3.92,6.47c1.27,-2.24 2.35,-4.49 3.26,-6.75c0.22,0.04 0.46,0.06 0.72,0.05c0.26,-0.02 0.5,-0.06 0.71,-0.12" id="svg_32"/>
   <path class="st0" d="m190.11,192.56c-2.4,4.76 -4.48,9.32 -6.23,13.67c1.03,-0.16 1.8,-0.29 2.31,-0.38c1.83,-0.33 3.75,-0.76 5.76,-1.29c0.01,0.13 0.04,0.33 0.09,0.59c0.05,0.27 0.09,0.47 0.13,0.6c-2.77,0.45 -4.82,0.8 -6.14,1.04c-1.57,0.29 -3.12,0.59 -4.63,0.91c2.22,-4.77 4.23,-9.33 6.03,-13.69c-0.33,0.05 -0.85,0.13 -1.54,0.26c-1.73,0.32 -3.63,0.74 -5.72,1.26c-0.02,-0.26 -0.04,-0.45 -0.06,-0.56c-0.03,-0.14 -0.07,-0.32 -0.14,-0.55c2.26,-0.36 3.96,-0.64 5.1,-0.85c1.12,-0.21 2.8,-0.54 5.04,-1.01" id="svg_33"/>
   <path class="st0" d="m202.61,188.33c0.89,2.83 1.85,5.73 2.89,8.68c0.37,1.04 0.87,2.43 1.51,4.17l-0.24,0.08c-1.48,-0.93 -3.67,-2.13 -6.56,-3.61l-6.1,-3.13c0.36,1.09 0.63,1.9 0.81,2.42c0.66,1.88 1.56,4.3 2.7,7.26c-0.24,0.02 -0.46,0.06 -0.66,0.13c-0.17,0.06 -0.37,0.16 -0.59,0.31c-1.01,-3.37 -2.2,-7.02 -3.58,-10.94l-0.69,-1.95l0.35,-0.13c3.61,2.07 7.76,4.23 12.44,6.5c-0.27,-0.84 -0.45,-1.39 -0.53,-1.63c-1.06,-3.01 -2.02,-5.6 -2.9,-7.77c0.29,-0.04 0.49,-0.09 0.62,-0.13c0.12,-0.03 0.3,-0.12 0.53,-0.26" id="svg_34"/>
   <path class="st0" d="m219.93,194.35c-0.34,0.11 -0.64,0.23 -0.89,0.36c-0.27,0.14 -0.54,0.32 -0.84,0.55c-1.11,-1.08 -2.29,-2.12 -3.53,-3.15l-0.66,-0.54c-0.48,0.23 -1.2,0.59 -2.14,1.08c-0.96,0.5 -1.66,0.89 -2.12,1.16c0.11,1.52 0.32,3.36 0.65,5.55c-0.22,0.05 -0.43,0.12 -0.61,0.21c-0.13,0.07 -0.31,0.19 -0.53,0.37c-0.31,-5.53 -0.63,-10.46 -0.98,-14.81l0.33,-0.17c3.72,3.19 7.5,6.32 11.32,9.39m-6.66,-3.35l-0.69,-0.61c-0.36,-0.31 -1.47,-1.23 -3.34,-2.74l0.41,5.25c0.07,-0.04 0.25,-0.13 0.54,-0.28c0.29,-0.14 0.56,-0.27 0.79,-0.39c0.17,-0.09 0.51,-0.28 1.03,-0.56c0.5,-0.27 0.93,-0.5 1.26,-0.67" id="svg_35"/>
   <path class="st0" d="m238.12,180.1c-0.24,0.14 -0.49,0.33 -0.77,0.57c-0.25,0.23 -0.46,0.44 -0.62,0.65c-1,-1.3 -2.24,-2.8 -3.73,-4.49l-0.62,-0.67c-1.03,0.86 -2.05,1.73 -3.05,2.62c-1.01,0.89 -2,1.79 -2.99,2.72l0.61,0.69c2.12,2.4 3.43,3.83 3.93,4.31c-0.24,0.14 -0.49,0.33 -0.75,0.56c-0.25,0.22 -0.46,0.44 -0.62,0.65c-1.08,-1.4 -2.62,-3.23 -4.62,-5.5c-1.86,-2.11 -3.25,-3.61 -4.17,-4.52c0.24,-0.14 0.49,-0.32 0.74,-0.55c0.25,-0.22 0.46,-0.44 0.62,-0.65c0.36,0.53 1.43,1.79 3.19,3.79l0.5,0.57c0.68,-0.58 1.69,-1.47 3.04,-2.66c1.33,-1.18 2.34,-2.07 3,-2.67l-0.49,-0.58c-1.23,-1.39 -2.37,-2.59 -3.42,-3.58c0.24,-0.14 0.49,-0.33 0.75,-0.56c0.26,-0.23 0.47,-0.45 0.64,-0.67c1.16,1.45 2.48,3.02 3.96,4.7c1.34,1.51 2.96,3.27 4.87,5.27" id="svg_36"/>
   <path class="st0" d="m244.92,161.7c1.62,1.29 2.52,2.84 2.69,4.66c0.18,1.82 -0.41,3.57 -1.75,5.26c-1.38,1.74 -2.96,2.73 -4.73,2.97c-1.77,0.24 -3.49,-0.31 -5.16,-1.63c-1.65,-1.31 -2.56,-2.87 -2.73,-4.67c-0.17,-1.8 0.43,-3.56 1.79,-5.27c1.38,-1.73 2.95,-2.71 4.73,-2.94c1.78,-0.24 3.5,0.3 5.16,1.62m-1.21,1.51c-1.58,-1.25 -3.05,-1.85 -4.44,-1.81c-1.38,0.05 -2.6,0.74 -3.66,2.07c-1.04,1.31 -1.43,2.66 -1.14,4.05c0.28,1.39 1.2,2.7 2.77,3.95c1.53,1.22 2.99,1.81 4.38,1.75c1.39,-0.05 2.6,-0.74 3.66,-2.06c1.04,-1.31 1.43,-2.66 1.16,-4.03c-0.27,-1.38 -1.18,-2.69 -2.73,-3.92" id="svg_37"/>
   <path class="st0" d="m245.99,145.97c2.56,1.51 5.21,3.01 7.97,4.5c0.97,0.53 2.28,1.22 3.91,2.08l-0.12,0.22c-1.72,0.31 -4.15,0.88 -7.29,1.73l-6.62,1.78c0.99,0.57 1.74,0.99 2.23,1.25c1.75,0.95 4.04,2.14 6.87,3.58c-0.17,0.17 -0.3,0.35 -0.4,0.53c-0.09,0.16 -0.16,0.37 -0.23,0.63c-3.01,-1.82 -6.34,-3.73 -10,-5.71l-1.82,-0.98l0.18,-0.33c4.06,-0.89 8.59,-2.06 13.59,-3.52c-0.76,-0.44 -1.26,-0.73 -1.49,-0.85c-2.8,-1.52 -5.25,-2.79 -7.36,-3.82c0.18,-0.23 0.3,-0.4 0.37,-0.51c0.06,-0.13 0.13,-0.32 0.21,-0.58" id="svg_38"/>
   <path class="st0" d="m257.75,132.79c1.96,0.65 3.34,1.81 4.12,3.45c0.79,1.65 0.84,3.49 0.16,5.54c-0.7,2.11 -1.84,3.58 -3.42,4.41c-1.58,0.83 -3.38,0.91 -5.4,0.24c-2,-0.66 -3.39,-1.82 -4.17,-3.45c-0.78,-1.64 -0.82,-3.49 -0.13,-5.56c0.7,-2.1 1.84,-3.56 3.43,-4.39c1.6,-0.83 3.4,-0.91 5.41,-0.24m-0.62,1.83c-1.91,-0.64 -3.5,-0.69 -4.79,-0.18c-1.28,0.52 -2.19,1.59 -2.73,3.2c-0.53,1.59 -0.43,2.99 0.32,4.2c0.74,1.21 2.06,2.13 3.96,2.76c1.86,0.62 3.43,0.67 4.72,0.14c1.28,-0.52 2.19,-1.59 2.73,-3.19c0.53,-1.59 0.43,-2.99 -0.29,-4.19c-0.73,-1.2 -2.03,-2.11 -3.92,-2.74" id="svg_39"/>
   <path class="st0" d="m266.37,121.29c-0.13,0.41 -0.23,0.79 -0.29,1.14c-0.06,0.33 -0.08,0.71 -0.09,1.13c-1.64,0.77 -2.89,1.39 -3.75,1.85l-3.04,1.65c-0.32,0.17 -0.5,0.4 -0.55,0.7c-0.01,0.06 -0.02,0.19 -0.02,0.37l3.52,0.58c0.74,0.12 1.72,0.25 2.92,0.38c-0.12,0.31 -0.2,0.6 -0.24,0.87c-0.04,0.26 -0.06,0.56 -0.05,0.92c-1.47,-0.33 -3.65,-0.74 -6.54,-1.22c-2.78,-0.46 -4.99,-0.78 -6.6,-0.95c0.11,-0.48 0.17,-0.77 0.18,-0.88c0.04,-0.24 0.1,-0.71 0.19,-1.39c0.09,-0.68 0.17,-1.25 0.24,-1.7c0.48,-2.88 1.75,-4.15 3.83,-3.81c0.9,0.15 1.6,0.6 2.12,1.37c0.51,0.76 0.78,1.78 0.81,3.06c1.35,-0.7 3.81,-2.06 7.36,-4.07m-10.35,1.35c-1.73,-0.28 -2.78,0.67 -3.15,2.88c-0.06,0.39 -0.13,0.89 -0.19,1.51c0.55,0.17 1.2,0.32 1.95,0.44l3.39,0.56c0.04,-0.15 0.08,-0.36 0.13,-0.63c0.46,-2.87 -0.24,-4.45 -2.13,-4.76" id="svg_40"/>
  </g>
  <text font-size="10.67" id="svg_41" transform="matrix(1 0 0 1 300.976 96.9739)" x="-66" y="1">
   <tspan class="st0 st2 st3" font-size="50" id="svg_42" x="-66" y="1">KANCELARIA ADWOKACKA</tspan>
   <tspan class="st0 st4 st3" font-size="50" id="svg_43" x="-66" y="61">EWA PORYCKA</tspan>
  </text>
 </g>
</svg>